{
	"buffers":[{
		"uri":"data:application/octet-stream;base64,",
		"byteLength":1272
	},
	{
		"uri":"data:application/octet-stream;base64,",
		"byteLength":146960
	},
	{
		"uri":"data:application/octet-stream;base64,",
		"byteLength":47688
	},
	{
		"uri":"data:application/octet-stream;base64,",
		"byteLength":60312
	},
	{
		"uri":"data:application/octet-stream;base64,",
		"byteLength":19912
	},
	{
		"uri":"data:application/octet-stream;base64,",
		"byteLength":3580
	},
	{
		"uri":"data:application/octet-stream;base64,",
		"byteLength":3796
	},
	{
		"uri":"data:application/octet-stream;base64,",
		"byteLength":3796
	},
	{
		"uri":"data:application/octet-stream;base64,",
		"byteLength":2312
	},
	{
		"uri":"data:application/octet-stream;base64,",
		"byteLength":29660
	},
	{
		"uri":"data:application/octet-stream;base64,",
		"byteLength":2568
	},
	{
		"uri":"data:application/octet-stream;base64,",
		"byteLength":10888
	},
	{
		"uri":"data:application/octet-stream;base64,",
		"byteLength":11016
	},
	{
		"uri":"data:application/octet-stream;base64,",
		"byteLength":1704
	},
	{
		"uri":"data:application/octet-stream;base64,",
		"byteLength":3984
	},
	{
		"uri":"data:application/octet-stream;base64,",
		"byteLength":2100
	}],
	"asset":{
		"version":"2.0",
		"generator":"Created using the official Cinema 4D glTF Exporter 1.000x284978"
	},
	"scenes":[{
		"nodes":[0,
		2,
		11,
		22,
		27]
	}],
	"nodes":[{
		"name":"Extrude",
		"translation":[95.41777038574219,
		52.69163513183594,
		-6.120502948760986],
		"rotation":[0.0,
		0.0,
		0.0,
		-1.0],
		"scale":[1.0,
		1.0,
		1.0],
		"children":[1]
	},
	{
		"name":"Extrude",
		"mesh":0
	},
	{
		"name":"Group.1",
		"translation":[7.586397171020508,
		-8.642181396484375,
		1.0221565961837769],
		"rotation":[0.0,
		0.0,
		0.0,
		-1.0],
		"scale":[1.0,
		1.0,
		1.0],
		"children":[3,
		7]
	},
	{
		"name":"Extrude.6",
		"translation":[47.40950393676758,
		20.984935760498048,
		-26.916078567504884],
		"rotation":[0.0,
		0.0,
		0.7071067690849304,
		0.7071067690849304],
		"scale":[1.0,
		1.0,
		1.0],
		"children":[4]
	},
	{
		"name":"Extrude.6",
		"children":[5,
		6]
	},
	{
		"name":"Extrude.6-Mat.8",
		"mesh":1
	},
	{
		"name":"Extrude.6-Mat.2",
		"mesh":2
	},
	{
		"name":"Extrude.5",
		"translation":[47.40950393676758,
		20.984935760498048,
		-26.916078567504884],
		"rotation":[0.0,
		0.0,
		0.7071067690849304,
		0.7071067690849304],
		"scale":[1.0,
		1.0,
		1.0],
		"children":[8]
	},
	{
		"name":"Extrude.5",
		"children":[9,
		10]
	},
	{
		"name":"Extrude.5-Mat.8",
		"mesh":3
	},
	{
		"name":"Extrude.5-Mat.2",
		"mesh":4
	},
	{
		"name":"Group",
		"translation":[92.87377166748047,
		136.86717224121095,
		-0.20257163047790528],
		"rotation":[0.0,
		0.0,
		0.0,
		-1.0],
		"scale":[1.0,
		1.0,
		1.0],
		"children":[12,
		14,
		16,
		18,
		20]
	},
	{
		"name":"Extrude.4",
		"children":[13]
	},
	{
		"name":"Extrude.4",
		"mesh":5
	},
	{
		"name":"Extrude.3",
		"children":[15]
	},
	{
		"name":"Extrude.3",
		"mesh":6
	},
	{
		"name":"Extrude.2",
		"children":[17]
	},
	{
		"name":"Extrude.2",
		"mesh":7
	},
	{
		"name":"Extrude.1",
		"children":[19]
	},
	{
		"name":"Extrude.1",
		"mesh":8
	},
	{
		"name":"Extrude",
		"children":[21]
	},
	{
		"name":"Extrude",
		"mesh":9
	},
	{
		"name":"true",
		"translation":[122.67415618896485,
		142.09280395507813,
		0.22345580160617829],
		"rotation":[0.0,
		0.0,
		0.0,
		-1.0],
		"scale":[1.0,
		1.0,
		1.0],
		"children":[23,
		24,
		25,
		26]
	},
	{
		"name":"Extrude.1",
		"translation":[-28.89487075805664,
		-30.005264282226564,
		0.0],
		"rotation":[0.0,
		0.0,
		0.0,
		-1.0],
		"scale":[1.0,
		1.0,
		1.0],
		"mesh":10
	},
	{
		"name":"Extrude",
		"translation":[-28.89487075805664,
		-30.005264282226564,
		0.0],
		"rotation":[0.0,
		0.0,
		0.0,
		-1.0],
		"scale":[1.0,
		1.0,
		1.0],
		"mesh":11
	},
	{
		"name":"Extrude.1",
		"translation":[-28.89487075805664,
		-30.005264282226564,
		0.0],
		"rotation":[0.0,
		0.0,
		0.0,
		-1.0],
		"scale":[1.0,
		1.0,
		1.0],
		"mesh":12
	},
	{
		"name":"Extrude",
		"translation":[-28.89487075805664,
		-30.005264282226564,
		0.0],
		"rotation":[0.0,
		0.0,
		0.0,
		-1.0],
		"scale":[1.0,
		1.0,
		1.0],
		"mesh":13
	},
	{
		"name":"Default",
		"children":[28,
		29]
	},
	{
		"name":"Default-FrontColor",
		"mesh":14
	},
	{
		"name":"Default-FrontColor",
		"mesh":15
	}],
	"meshes":[{
		"name":"Extrude",
		"primitives":[{
			"attributes":{
				"POSITION":1,
				"NORMAL":2,
				"TEXCOORD_0":3
			},
			"indices":0,
			"material":0
		}]
	},
	{
		"name":"Extrude.6-Mat.8",
		"primitives":[{
			"attributes":{
				"POSITION":5,
				"NORMAL":6,
				"TEXCOORD_0":7
			},
			"indices":4,
			"material":1
		}]
	},
	{
		"name":"Extrude.6-Mat.2",
		"primitives":[{
			"attributes":{
				"POSITION":9,
				"NORMAL":10,
				"TEXCOORD_0":11
			},
			"indices":8,
			"material":2
		}]
	},
	{
		"name":"Extrude.5-Mat.8",
		"primitives":[{
			"attributes":{
				"POSITION":13,
				"NORMAL":14,
				"TEXCOORD_0":15
			},
			"indices":12,
			"material":1
		}]
	},
	{
		"name":"Extrude.5-Mat.2",
		"primitives":[{
			"attributes":{
				"POSITION":17,
				"NORMAL":18,
				"TEXCOORD_0":19
			},
			"indices":16,
			"material":2
		}]
	},
	{
		"name":"Extrude.4",
		"primitives":[{
			"attributes":{
				"POSITION":21,
				"NORMAL":22,
				"TEXCOORD_0":23
			},
			"indices":20,
			"material":0
		}]
	},
	{
		"name":"Extrude.3",
		"primitives":[{
			"attributes":{
				"POSITION":25,
				"NORMAL":26,
				"TEXCOORD_0":27
			},
			"indices":24,
			"material":0
		}]
	},
	{
		"name":"Extrude.2",
		"primitives":[{
			"attributes":{
				"POSITION":29,
				"NORMAL":30,
				"TEXCOORD_0":31
			},
			"indices":28,
			"material":0
		}]
	},
	{
		"name":"Extrude.1",
		"primitives":[{
			"attributes":{
				"POSITION":33,
				"NORMAL":34,
				"TEXCOORD_0":35
			},
			"indices":32,
			"material":0
		}]
	},
	{
		"name":"Extrude",
		"primitives":[{
			"attributes":{
				"POSITION":37,
				"NORMAL":38,
				"TEXCOORD_0":39
			},
			"indices":36,
			"material":0
		}]
	},
	{
		"name":"Extrude.1",
		"primitives":[{
			"attributes":{
				"POSITION":41,
				"NORMAL":42,
				"TEXCOORD_0":43
			},
			"indices":40,
			"material":0
		}]
	},
	{
		"name":"Extrude",
		"primitives":[{
			"attributes":{
				"POSITION":45,
				"NORMAL":46,
				"TEXCOORD_0":47
			},
			"indices":44,
			"material":0
		}]
	},
	{
		"name":"Extrude.1",
		"primitives":[{
			"attributes":{
				"POSITION":49,
				"NORMAL":50,
				"TEXCOORD_0":51
			},
			"indices":48,
			"material":0
		}]
	},
	{
		"name":"Extrude",
		"primitives":[{
			"attributes":{
				"POSITION":53,
				"NORMAL":54,
				"TEXCOORD_0":55
			},
			"indices":52,
			"material":0
		}]
	},
	{
		"name":"Default-FrontColor",
		"primitives":[{
			"attributes":{
				"POSITION":57,
				"NORMAL":58,
				"TEXCOORD_0":59
			},
			"indices":56,
			"material":3
		}]
	},
	{
		"name":"Default-FrontColor",
		"primitives":[{
			"attributes":{
				"POSITION":61,
				"NORMAL":62,
				"TEXCOORD_0":63
			},
			"indices":60,
			"material":3
		}]
	}],
	"accessors":[{
		"bufferView":0,
		"type":"SCALAR",
		"componentType":5123,
		"count":60,
		"min":[0],
		"byteOffset":0,
		"max":[35]
	},
	{
		"bufferView":1,
		"type":"VEC3",
		"componentType":5126,
		"count":36,
		"min":[1.324816107749939,
		8.27813720703125,
		6.0116753578186039],
		"byteOffset":0,
		"max":[12.88979434967041,
		15.340357780456543,
		6.333154678344727]
	},
	{
		"bufferView":1,
		"type":"VEC3",
		"componentType":5126,
		"count":36,
		"min":[-0.9999510645866394,
		-0.9321491718292236,
		-1.0],
		"byteOffset":12,
		"max":[0.9998000860214233,
		0.9337461590766907,
		1.0]
	},
	{
		"bufferView":1,
		"type":"VEC2",
		"componentType":5126,
		"count":36,
		"min":[0.0,
		0.0],
		"byteOffset":24,
		"max":[1.0,
		1.0]
	},
	{
		"bufferView":2,
		"type":"SCALAR",
		"componentType":5123,
		"count":11304,
		"min":[0],
		"byteOffset":0,
		"max":[3885]
	},
	{
		"bufferView":3,
		"type":"VEC3",
		"componentType":5126,
		"count":3886,
		"min":[48.26779556274414,
		-18.111061096191408,
		-2.25],
		"byteOffset":0,
		"max":[174.8158416748047,
		18.111061096191408,
		0.0]
	},
	{
		"bufferView":3,
		"type":"VEC3",
		"componentType":5126,
		"count":3886,
		"min":[-0.9997813105583191,
		-1.0,
		0.0],
		"byteOffset":12,
		"max":[0.9999688267707825,
		1.0,
		1.0]
	},
	{
		"bufferView":3,
		"type":"VEC2",
		"componentType":5126,
		"count":3886,
		"min":[0.0,
		0.0],
		"byteOffset":24,
		"max":[1.0,
		1.0]
	},
	{
		"bufferView":4,
		"type":"SCALAR",
		"componentType":5123,
		"count":3780,
		"min":[0],
		"byteOffset":0,
		"max":[1253]
	},
	{
		"bufferView":5,
		"type":"VEC3",
		"componentType":5126,
		"count":1254,
		"min":[48.26779556274414,
		-18.111061096191408,
		-2.25],
		"byteOffset":0,
		"max":[174.8158416748047,
		18.111061096191408,
		-2.25]
	},
	{
		"bufferView":5,
		"type":"VEC3",
		"componentType":5126,
		"count":1254,
		"min":[0.0,
		0.0,
		-1.0],
		"byteOffset":12,
		"max":[0.0,
		0.0,
		-1.0]
	},
	{
		"bufferView":5,
		"type":"VEC2",
		"componentType":5126,
		"count":1254,
		"min":[0.0,
		0.0],
		"byteOffset":24,
		"max":[1.0,
		0.2862321734428406]
	},
	{
		"bufferView":6,
		"type":"SCALAR",
		"componentType":5123,
		"count":4716,
		"min":[0],
		"byteOffset":0,
		"max":[1589]
	},
	{
		"bufferView":7,
		"type":"VEC3",
		"componentType":5126,
		"count":1590,
		"min":[6.2289299964904789,
		-22.880290985107423,
		-2.25],
		"byteOffset":0,
		"max":[57.050540924072269,
		22.86088752746582,
		0.0]
	},
	{
		"bufferView":7,
		"type":"VEC3",
		"componentType":5126,
		"count":1590,
		"min":[-0.999750018119812,
		-0.9999688267707825,
		0.0],
		"byteOffset":12,
		"max":[0.9999688267707825,
		0.9999688267707825,
		1.0]
	},
	{
		"bufferView":7,
		"type":"VEC2",
		"componentType":5126,
		"count":1590,
		"min":[0.0,
		0.0],
		"byteOffset":24,
		"max":[1.0,
		1.0]
	},
	{
		"bufferView":8,
		"type":"SCALAR",
		"componentType":5123,
		"count":1572,
		"min":[0],
		"byteOffset":0,
		"max":[523]
	},
	{
		"bufferView":9,
		"type":"VEC3",
		"componentType":5126,
		"count":524,
		"min":[6.2289299964904789,
		-22.880290985107423,
		-2.25],
		"byteOffset":0,
		"max":[57.050540924072269,
		22.86088752746582,
		-2.25]
	},
	{
		"bufferView":9,
		"type":"VEC3",
		"componentType":5126,
		"count":524,
		"min":[0.0,
		0.0,
		-1.0],
		"byteOffset":12,
		"max":[0.0,
		0.0,
		-1.0]
	},
	{
		"bufferView":9,
		"type":"VEC2",
		"componentType":5126,
		"count":524,
		"min":[0.0,
		0.0],
		"byteOffset":24,
		"max":[1.0,
		0.9000339508056641]
	},
	{
		"bufferView":10,
		"type":"SCALAR",
		"componentType":5123,
		"count":222,
		"min":[0],
		"byteOffset":0,
		"max":[97]
	},
	{
		"bufferView":11,
		"type":"VEC3",
		"componentType":5126,
		"count":98,
		"min":[13.237617492675782,
		22.638521194458009,
		0.0],
		"byteOffset":0,
		"max":[16.304716110229493,
		28.991010665893556,
		0.5727149248123169]
	},
	{
		"bufferView":11,
		"type":"VEC3",
		"componentType":5126,
		"count":98,
		"min":[-1.0,
		-1.0,
		-1.0],
		"byteOffset":12,
		"max":[1.0,
		1.0,
		1.0]
	},
	{
		"bufferView":11,
		"type":"VEC2",
		"componentType":5126,
		"count":98,
		"min":[0.0,
		0.0],
		"byteOffset":24,
		"max":[1.0,
		1.0]
	},
	{
		"bufferView":12,
		"type":"SCALAR",
		"componentType":5123,
		"count":234,
		"min":[0],
		"byteOffset":0,
		"max":[103]
	},
	{
		"bufferView":13,
		"type":"VEC3",
		"componentType":5126,
		"count":104,
		"min":[9.86086654663086,
		22.638708114624025,
		0.0],
		"byteOffset":0,
		"max":[12.810163497924805,
		28.990604400634767,
		0.5727149248123169]
	},
	{
		"bufferView":13,
		"type":"VEC3",
		"componentType":5126,
		"count":104,
		"min":[-0.993642270565033,
		-1.0,
		-1.0],
		"byteOffset":12,
		"max":[0.993739128112793,
		1.0,
		1.0]
	},
	{
		"bufferView":13,
		"type":"VEC2",
		"componentType":5126,
		"count":104,
		"min":[0.0,
		0.0],
		"byteOffset":24,
		"max":[1.0,
		1.0]
	},
	{
		"bufferView":14,
		"type":"SCALAR",
		"componentType":5123,
		"count":234,
		"min":[0],
		"byteOffset":0,
		"max":[103]
	},
	{
		"bufferView":15,
		"type":"VEC3",
		"componentType":5126,
		"count":104,
		"min":[9.86086654663086,
		22.638708114624025,
		0.0],
		"byteOffset":0,
		"max":[12.810163497924805,
		28.990604400634767,
		0.5727149248123169]
	},
	{
		"bufferView":15,
		"type":"VEC3",
		"componentType":5126,
		"count":104,
		"min":[-0.993642270565033,
		-1.0,
		-1.0],
		"byteOffset":12,
		"max":[0.993739128112793,
		1.0,
		1.0]
	},
	{
		"bufferView":15,
		"type":"VEC2",
		"componentType":5126,
		"count":104,
		"min":[0.0,
		0.0],
		"byteOffset":24,
		"max":[1.0,
		1.0]
	},
	{
		"bufferView":16,
		"type":"SCALAR",
		"componentType":5123,
		"count":132,
		"min":[0],
		"byteOffset":0,
		"max":[63]
	},
	{
		"bufferView":17,
		"type":"VEC3",
		"componentType":5126,
		"count":64,
		"min":[6.739309310913086,
		22.63835334777832,
		0.0],
		"byteOffset":0,
		"max":[9.35318660736084,
		28.990942001342775,
		0.5727149248123169]
	},
	{
		"bufferView":17,
		"type":"VEC3",
		"componentType":5126,
		"count":64,
		"min":[-1.0,
		-1.0,
		-1.0],
		"byteOffset":12,
		"max":[1.0,
		1.0,
		1.0]
	},
	{
		"bufferView":17,
		"type":"VEC2",
		"componentType":5126,
		"count":64,
		"min":[0.0,
		0.0],
		"byteOffset":24,
		"max":[1.0,
		1.0]
	},
	{
		"bufferView":18,
		"type":"SCALAR",
		"componentType":5123,
		"count":2670,
		"min":[0],
		"byteOffset":0,
		"max":[759]
	},
	{
		"bufferView":19,
		"type":"VEC3",
		"componentType":5126,
		"count":760,
		"min":[3.5151596069335939,
		22.53888511657715,
		0.0],
		"byteOffset":0,
		"max":[6.1012725830078129,
		29.090646743774415,
		0.5727149248123169]
	},
	{
		"bufferView":19,
		"type":"VEC3",
		"componentType":5126,
		"count":760,
		"min":[-0.9999998807907105,
		-0.9999857544898987,
		-1.0],
		"byteOffset":12,
		"max":[0.9999930262565613,
		0.9999991059303284,
		1.0]
	},
	{
		"bufferView":19,
		"type":"VEC2",
		"componentType":5126,
		"count":760,
		"min":[0.0,
		0.0],
		"byteOffset":24,
		"max":[1.0,
		1.0]
	},
	{
		"bufferView":20,
		"type":"SCALAR",
		"componentType":5123,
		"count":132,
		"min":[0],
		"byteOffset":0,
		"max":[71]
	},
	{
		"bufferView":21,
		"type":"VEC3",
		"componentType":5126,
		"count":72,
		"min":[14.713418006896973,
		2.1848409175872804,
		-1.6219967603683472],
		"byteOffset":0,
		"max":[17.300180435180665,
		9.259026527404786,
		0.0]
	},
	{
		"bufferView":21,
		"type":"VEC3",
		"componentType":5126,
		"count":72,
		"min":[-1.0,
		-1.0,
		-1.0],
		"byteOffset":12,
		"max":[1.0,
		1.0,
		1.0]
	},
	{
		"bufferView":21,
		"type":"VEC2",
		"componentType":5126,
		"count":72,
		"min":[0.0,
		0.0],
		"byteOffset":24,
		"max":[1.0,
		1.0]
	},
	{
		"bufferView":22,
		"type":"SCALAR",
		"componentType":5123,
		"count":804,
		"min":[0],
		"byteOffset":0,
		"max":[289]
	},
	{
		"bufferView":23,
		"type":"VEC3",
		"componentType":5126,
		"count":290,
		"min":[10.179118156433106,
		2.074073553085327,
		-1.6219967603683472],
		"byteOffset":0,
		"max":[13.149588584899903,
		9.258830070495606,
		0.0]
	},
	{
		"bufferView":23,
		"type":"VEC3",
		"componentType":5126,
		"count":290,
		"min":[-1.0,
		-0.999925971031189,
		-1.0],
		"byteOffset":12,
		"max":[1.0,
		1.0,
		1.0]
	},
	{
		"bufferView":23,
		"type":"VEC2",
		"componentType":5126,
		"count":290,
		"min":[0.0,
		0.0],
		"byteOffset":24,
		"max":[1.0,
		1.0]
	},
	{
		"bufferView":24,
		"type":"SCALAR",
		"componentType":5123,
		"count":804,
		"min":[0],
		"byteOffset":0,
		"max":[293]
	},
	{
		"bufferView":25,
		"type":"VEC3",
		"componentType":5126,
		"count":294,
		"min":[5.937164783477783,
		2.1852362155914308,
		-1.6219967603683472],
		"byteOffset":0,
		"max":[8.867934226989746,
		9.258651733398438,
		0.0]
	},
	{
		"bufferView":25,
		"type":"VEC3",
		"componentType":5126,
		"count":294,
		"min":[-1.0,
		-1.0,
		-1.0],
		"byteOffset":12,
		"max":[1.0,
		1.0,
		1.0]
	},
	{
		"bufferView":25,
		"type":"VEC2",
		"componentType":5126,
		"count":294,
		"min":[0.0,
		0.0],
		"byteOffset":24,
		"max":[1.0,
		1.0]
	},
	{
		"bufferView":26,
		"type":"SCALAR",
		"componentType":5123,
		"count":84,
		"min":[0],
		"byteOffset":0,
		"max":[47]
	},
	{
		"bufferView":27,
		"type":"VEC3",
		"componentType":5126,
		"count":48,
		"min":[1.737311601638794,
		2.1848409175872804,
		-1.6219967603683472],
		"byteOffset":0,
		"max":[4.6481032371521,
		9.259026527404786,
		0.0]
	},
	{
		"bufferView":27,
		"type":"VEC3",
		"componentType":5126,
		"count":48,
		"min":[-1.0,
		-1.0,
		-1.0],
		"byteOffset":12,
		"max":[1.0,
		1.0,
		1.0]
	},
	{
		"bufferView":27,
		"type":"VEC2",
		"componentType":5126,
		"count":48,
		"min":[0.0,
		0.0],
		"byteOffset":24,
		"max":[1.0,
		1.0]
	},
	{
		"bufferView":28,
		"type":"SCALAR",
		"componentType":5123,
		"count":264,
		"min":[0],
		"byteOffset":0,
		"max":[107]
	},
	{
		"bufferView":29,
		"type":"VEC3",
		"componentType":5126,
		"count":108,
		"min":[-5.009269964305969e-31,
		0.0,
		-100.0],
		"byteOffset":0,
		"max":[151.0,
		200.0,
		0.0]
	},
	{
		"bufferView":29,
		"type":"VEC3",
		"componentType":5126,
		"count":108,
		"min":[-1.0,
		-1.0,
		-1.0],
		"byteOffset":12,
		"max":[1.0,
		1.0,
		1.0]
	},
	{
		"bufferView":29,
		"type":"VEC2",
		"componentType":5126,
		"count":108,
		"min":[-59.44879913330078,
		-77.74018859863281],
		"byteOffset":24,
		"max":[59.44879913330078,
		20.513198852539064]
	},
	{
		"bufferView":30,
		"type":"SCALAR",
		"componentType":5123,
		"count":90,
		"min":[0],
		"byteOffset":0,
		"max":[59]
	},
	{
		"bufferView":31,
		"type":"VEC3",
		"componentType":5126,
		"count":60,
		"min":[90.0,
		60.0,
		-31.0],
		"byteOffset":0,
		"max":[116.0,
		167.5760040283203,
		1.3535799949426428e-14]
	},
	{
		"bufferView":31,
		"type":"VEC3",
		"componentType":5126,
		"count":60,
		"min":[-1.0,
		-1.0,
		0.0],
		"byteOffset":12,
		"max":[1.0,
		1.0,
		1.0]
	},
	{
		"bufferView":31,
		"type":"VEC2",
		"componentType":5126,
		"count":60,
		"min":[-45.6693000793457,
		-64.97479248046875],
		"byteOffset":24,
		"max":[45.6693000793457,
		1.0]
	}],
	"materials":[{
		"pbrMetallicRoughness":{
			"baseColorFactor":[0.047058823529411767,
			0.13725490196078439,
			0.25098039215686276,
			1.0],
			"metallicFactor":0.0,
			"roughnessFactor":0.5
		},
		"emissiveFactor":[0.0,
		0.0,
		0.0],
		"alphaMode":"OPAQUE",
		"doubleSided":false,
		"name":"Mat"
	},
	{
		"pbrMetallicRoughness":{
			"baseColorFactor":[1.0,
			1.0,
			1.0,
			1.0],
			"metallicFactor":1.0,
			"roughnessFactor":1.0
		},
		"emissiveFactor":[0.0,
		0.0,
		0.0],
		"alphaMode":"OPAQUE",
		"doubleSided":false,
		"name":"Mat.8"
	},
	{
		"pbrMetallicRoughness":{
			"baseColorFactor":[1.0,
			1.0,
			1.0,
			1.0],
			"metallicFactor":0.0,
			"roughnessFactor":0.5
		},
		"emissiveFactor":[1.0,
		1.0,
		1.0],
		"alphaMode":"OPAQUE",
		"doubleSided":false,
		"name":"Mat.2"
	},
	{
		"pbrMetallicRoughness":{
			"baseColorFactor":[1.0,
			1.0,
			1.0,
			1.0],
			"metallicFactor":1.0,
			"roughnessFactor":0.0
		},
		"emissiveFactor":[0.0,
		0.0,
		0.0],
		"alphaMode":"OPAQUE",
		"doubleSided":false,
		"name":"FrontColor"
	}],
	"bufferViews":[{
		"buffer":0,
		"byteOffset":0,
		"byteLength":120,
		"target":34963
	},
	{
		"buffer":0,
		"byteOffset":120,
		"byteLength":1152,
		"target":34962,
		"byteStride":32
	},
	{
		"buffer":1,
		"byteOffset":0,
		"byteLength":22608,
		"target":34963
	},
	{
		"buffer":1,
		"byteOffset":22608,
		"byteLength":124352,
		"target":34962,
		"byteStride":32
	},
	{
		"buffer":2,
		"byteOffset":0,
		"byteLength":7560,
		"target":34963
	},
	{
		"buffer":2,
		"byteOffset":7560,
		"byteLength":40128,
		"target":34962,
		"byteStride":32
	},
	{
		"buffer":3,
		"byteOffset":0,
		"byteLength":9432,
		"target":34963
	},
	{
		"buffer":3,
		"byteOffset":9432,
		"byteLength":50880,
		"target":34962,
		"byteStride":32
	},
	{
		"buffer":4,
		"byteOffset":0,
		"byteLength":3144,
		"target":34963
	},
	{
		"buffer":4,
		"byteOffset":3144,
		"byteLength":16768,
		"target":34962,
		"byteStride":32
	},
	{
		"buffer":5,
		"byteOffset":0,
		"byteLength":444,
		"target":34963
	},
	{
		"buffer":5,
		"byteOffset":444,
		"byteLength":3136,
		"target":34962,
		"byteStride":32
	},
	{
		"buffer":6,
		"byteOffset":0,
		"byteLength":468,
		"target":34963
	},
	{
		"buffer":6,
		"byteOffset":468,
		"byteLength":3328,
		"target":34962,
		"byteStride":32
	},
	{
		"buffer":7,
		"byteOffset":0,
		"byteLength":468,
		"target":34963
	},
	{
		"buffer":7,
		"byteOffset":468,
		"byteLength":3328,
		"target":34962,
		"byteStride":32
	},
	{
		"buffer":8,
		"byteOffset":0,
		"byteLength":264,
		"target":34963
	},
	{
		"buffer":8,
		"byteOffset":264,
		"byteLength":2048,
		"target":34962,
		"byteStride":32
	},
	{
		"buffer":9,
		"byteOffset":0,
		"byteLength":5340,
		"target":34963
	},
	{
		"buffer":9,
		"byteOffset":5340,
		"byteLength":24320,
		"target":34962,
		"byteStride":32
	},
	{
		"buffer":10,
		"byteOffset":0,
		"byteLength":264,
		"target":34963
	},
	{
		"buffer":10,
		"byteOffset":264,
		"byteLength":2304,
		"target":34962,
		"byteStride":32
	},
	{
		"buffer":11,
		"byteOffset":0,
		"byteLength":1608,
		"target":34963
	},
	{
		"buffer":11,
		"byteOffset":1608,
		"byteLength":9280,
		"target":34962,
		"byteStride":32
	},
	{
		"buffer":12,
		"byteOffset":0,
		"byteLength":1608,
		"target":34963
	},
	{
		"buffer":12,
		"byteOffset":1608,
		"byteLength":9408,
		"target":34962,
		"byteStride":32
	},
	{
		"buffer":13,
		"byteOffset":0,
		"byteLength":168,
		"target":34963
	},
	{
		"buffer":13,
		"byteOffset":168,
		"byteLength":1536,
		"target":34962,
		"byteStride":32
	},
	{
		"buffer":14,
		"byteOffset":0,
		"byteLength":528,
		"target":34963
	},
	{
		"buffer":14,
		"byteOffset":528,
		"byteLength":3456,
		"target":34962,
		"byteStride":32
	},
	{
		"buffer":15,
		"byteOffset":0,
		"byteLength":180,
		"target":34963
	},
	{
		"buffer":15,
		"byteOffset":180,
		"byteLength":1920,
		"target":34962,
		"byteStride":32
	}]
}